# xmcd CD database file
#
# Track frame offsets:
#	150
#	14379
#	29264
#	43861
#	62855
#	77694
#	95598
#	112346
#	128779
#	149294
#	167076
#	185944
#	199927
#	228167
#
# Disc length: 3222 seconds
#
# Revision: 1
# Processed by: cddbd v1.5.2PL0 Copyright (c) Steve Scherf et al.
# Submitted via: CDex 1.51
#
DISCID=cb0c940e
DTITLE=Crooked Still - Crooked Still Live
DYEAR=2009
DGENRE=Bluegrass
TTITLE0=Orphan Girl
TTITLE1=When First Unto This Country
TTITLE2=Little Sadie
TTITLE3=Wading Deep Waters
TTITLE4=Lulu Gal
TTITLE5=Can't You Hear Me Calling
TTITLE6=Look On and Cry
TTITLE7=Ain't No Grave
TTITLE8=The Golden Vanity
TTITLE9=Wind and Rain
TTITLE10=Darling Corey
TTITLE11=Captain, Captain
TTITLE12=Come On In My Kitchen
TTITLE13=The Absentee
EXTD=YEAR: 2009
EXTT0=
EXTT1=
EXTT2=
EXTT3=
EXTT4=
EXTT5=
EXTT6=
EXTT7=
EXTT8=
EXTT9=
EXTT10=
EXTT11=
EXTT12=
EXTT13=
PLAYORDER=
